<svg xmlns="http://www.w3.org/2000/svg" width="1em" height="1em" viewBox="0 0 256 256"><g fill="none"><g clip-path="url(#skillIconsBitbucketDark1)"><path fill="#242938" d="M196 0H60C26.863 0 0 26.863 0 60v136c0 33.137 26.863 60 60 60h136c33.137 0 60-26.863 60-60V60c0-33.137-26.863-60-60-60"/><path fill="#2684ff" d="M46.292 52.03a5.655 5.655 0 0 0-2.357.48c-.74.328-1.4.81-1.93 1.415a5.43 5.43 0 0 0-1.14 2.082a5.365 5.365 0 0 0-.138 2.36l23.624 140.758a7.395 7.395 0 0 0 2.551 4.422a7.655 7.655 0 0 0 4.85 1.778h113.332a5.635 5.635 0 0 0 3.651-1.28a5.443 5.443 0 0 0 1.914-3.309l23.624-142.342a5.363 5.363 0 0 0-.138-2.36a5.426 5.426 0 0 0-1.141-2.081a5.557 5.557 0 0 0-1.929-1.414a5.656 5.656 0 0 0-2.358-.481zm99.475 101.731h-36.173L99.8 103.537h54.732z"/><path fill="url(#skillIconsBitbucketDark0)" d="M206.616 103.467h-52.185l-8.758 50.184h-36.144l-42.677 49.72a7.62 7.62 0 0 0 4.865 1.801h113.27a5.628 5.628 0 0 0 3.648-1.279a5.433 5.433 0 0 0 1.912-3.306z"/></g><defs><linearGradient id="skillIconsBitbucketDark0" x1="39228.9" x2="23538.7" y1="3347.5" y2="23660.6" gradientUnits="userSpaceOnUse"><stop offset=".18" stop-color="#0052cc"/><stop offset="1" stop-color="#2684ff"/></linearGradient><clipPath id="skillIconsBitbucketDark1"><path fill="#fff" d="M0 0h256v256H0z"/></clipPath></defs></g></svg>